<svg width="669" height="620" viewBox="0 0 669 620" fill="none" xmlns="http://www.w3.org/2000/svg">
<path d="M638.09 1.03759L638.694 2.77565C639.45 4.47585 636.918 5.26917 633.745 4.5513C630.571 3.83344 630.571 4.02246 629.815 8.44298C629.06 12.8635 631.553 12.4101 629.815 13.1658C626.679 14.2691 623.338 14.6689 620.03 14.337C615.609 14.1103 618.556 17.0573 617.083 20.231C615.609 23.4047 613.72 27.2585 609.3 28.9965C604.879 30.7345 605.975 33.3793 603.255 38.291C600.61 43.2027 597.663 45.1674 593.28 44.6762C588.897 44.185 590.069 40.0667 586.404 36.8553C582.739 33.6438 581.492 35.0794 577.563 35.3439C573.633 35.6084 571.518 35.9106 568.382 33.2281C565.17 30.5078 559.692 34.8906 555.536 37.1198C551.342 39.3111 554.591 41.9937 553.835 44.185C553.08 46.3764 552.135 46.8297 549.944 49.021C547.753 51.2124 536.72 57.8999 533.773 57.6355C529.84 57.4198 525.896 57.5461 521.985 58.0132C516.847 58.4666 515.864 60.3936 512.653 62.3582C509.479 64.3229 502.149 62.3581 489.87 59.6378C477.629 56.9553 479.518 56.9175 475.362 54.235C471.206 51.5147 473.888 55.4818 472.415 59.4111C470.941 63.3405 466.143 65.0407 463.196 66.023C460.287 67.0053 460.022 66.9676 460.022 66.9676C460.022 66.9676 462.214 70.4814 463.952 74.6375C465.652 78.7935 462.667 77.9622 461.194 80.1913C459.758 82.3827 459.796 84.5741 457.302 87.5211C454.884 90.4303 455.791 90.8082 455.564 94.2086C455.3 97.6468 454.884 102.596 453.902 102.596C452.919 102.596 449.934 101.123 448.461 99.6492C446.987 98.1757 442.794 98.4024 442.794 100.367C442.794 102.332 443.285 109.926 443.285 109.926C443.285 109.926 439.582 111.362 436.862 111.362C434.217 111.362 430.552 107.206 429.797 104.259C429.116 101.312 422.731 99.3469 419.784 98.1001C416.837 96.8532 410.565 95.8709 408.336 92.4327C407.773 91.4298 407.365 90.347 407.127 89.2213C403.198 88.4657 397.606 86.9921 395.415 86.7276C392.203 86.3498 388.236 82.7227 380.189 82.3071C372.179 81.9293 369.345 82.685 368.174 84.7252C366.927 86.7277 367.758 91.526 362.96 93.1506C358.124 94.7374 357.708 99.1581 354.119 101.576C350.492 103.956 350.907 103.579 346.109 103.956C341.273 104.334 337.268 109.624 337.268 115.593C337.268 121.638 341.688 122.394 342.898 126.437C343.6 129.349 343.397 132.407 342.317 135.201C341.237 137.996 339.331 140.395 336.852 142.079C330.429 146.877 326.047 149.711 326.424 153.716C326.802 157.72 332.054 158.136 342.482 158.93C352.91 159.723 356.915 158.552 357.33 160.139C357.708 161.725 354.497 174.156 351.701 176.196C348.905 178.161 347.28 181.372 347.28 181.372L342.86 183.79C339.27 185.792 336.89 187.417 332.847 187.417C328.805 187.417 327.218 184.999 324.044 192.216C320.833 199.394 319.208 203.059 317.243 204.268C315.203 205.439 310.82 202.228 304.397 201.057C297.974 199.847 282.333 205.062 279.915 206.648C277.496 208.273 274.285 203.852 271.074 203.852C267.862 203.852 257.472 202.228 253.429 207.064C249.424 211.862 249.009 214.242 247.837 219.91C246.591 225.502 250.633 227.504 244.21 225.917C237.787 224.293 225.773 223.915 224.186 222.29C222.561 220.703 213.342 215.489 210.131 215.112C206.919 214.658 204.086 212.656 202.083 215.489C200.081 218.285 199.665 220.703 196.038 220.288C192.6 219.91 191.315 217.265 188.746 212.731C190.517 217.34 190.962 222.353 190.031 227.202C189.653 229.696 187.726 230.678 190.409 233.398C193.129 236.118 192.562 234.909 193.998 237.252C195.471 239.557 201.063 241.786 201.252 243.146C201.441 244.506 203.972 245.3 205.786 246.433C207.675 247.566 213.04 249.456 214.211 251.647C215.345 253.914 213.531 256.71 214.589 259.506C215.647 262.302 221.654 268.384 223.506 269.745C225.357 271.105 230.382 274.392 231.327 275.185C232.309 275.941 233.594 274.467 234.349 278.435C235.105 282.402 236.238 287.54 235.18 288.711C234.123 289.845 231.327 291.583 230.08 293.623C228.833 295.663 228.229 297.137 229.211 298.95C230.193 300.802 231.251 302.728 233.556 303.786C235.898 304.844 245.646 309.378 248.933 310.738C252.22 312.099 254.072 312.779 254.941 314.705C255.772 316.67 257.359 323.32 256.376 324.491C254.337 326.899 252.03 329.066 249.5 330.952C247.875 331.707 243.719 333.105 243.53 334.919C243.341 336.732 248.631 343.533 248.555 346.631C248.48 349.73 249.387 355.51 248.178 359.402C246.893 363.256 243.039 365.522 246.704 371.303C250.407 377.122 253.58 375.535 255.318 377.65C257.056 379.804 258.228 381.24 259.172 381.807C260.154 382.411 263.442 382.865 266.162 380.371C268.882 377.839 278.819 374.288 281.161 372.739C283.428 371.19 285.469 368.772 287.924 369.565C290.342 370.321 293.705 371.379 295.859 372.814C297.974 374.288 300.959 379.124 300.166 380.182C299.41 381.24 296.69 385.094 295.254 386.454C293.818 387.814 289.247 387.738 290.796 391.517C292.345 395.295 294.952 398.846 295.556 401.34C296.161 403.834 295.179 413.052 293.818 416.453C292.458 419.853 290.985 423.292 291.854 425.332C292.723 427.372 294.272 430.546 294.007 431.528C293.743 432.51 293.629 436.969 290.909 440.331C288.729 442.863 286.934 445.702 285.582 448.757C284.902 450.797 284.335 455.709 285.96 455.897C287.584 456.086 290.796 457.635 293.705 454.046C296.614 450.495 298.163 449.021 299.712 449.021C301.224 449.021 306.853 453.177 308.213 455.293C309.574 457.447 310.631 457.56 310.745 460.545C310.82 463.567 312.181 475.733 308.1 478.68C304.057 481.703 300.393 483.554 299.221 486.35C298.088 489.146 296.425 501.463 296.199 504.939C296.048 508.415 295.141 510.984 291.363 513.818C287.584 516.651 285.091 516.462 284.033 519.901C282.975 523.414 283.655 527.835 285.884 530.555C288.076 533.275 291.854 534.409 292.156 538.187C292.458 541.965 292.76 548.426 289.927 550.088C287.131 551.713 285.393 551.978 284.259 554.736C283.088 557.418 285.015 560.139 286.451 562.179C287.924 564.219 291.665 569.509 291.665 572.418C291.491 576.113 290.315 579.691 288.264 582.77C286.149 585.868 281.464 593.349 281.464 595.314C281.759 597.985 282.526 600.581 283.731 602.984C284.222 603.248 290.607 599.81 293.932 604.344C297.181 608.877 293.818 612.845 300.468 613.903C307.156 614.961 309.876 616.547 313.314 617.076C316.828 617.681 323.402 619.532 325.631 618.852C327.86 618.172 341.953 607.82 344.484 606.762C347.016 605.704 361.6 596.409 364.962 593.122C368.363 589.835 383.853 582.09 385.742 582.09C387.707 582.09 398.513 581.599 400.289 575.705C402.027 569.811 402.291 556.549 403.349 553.867C404.445 551.146 405.389 529.384 405.276 527.155C405.2 524.925 411.472 510.833 411.472 510.833C411.472 510.833 423.298 501.274 426.774 500.367C430.25 499.536 437.957 500.367 443.587 500.103C449.217 499.838 456.66 495.455 461.08 493.68C465.539 491.979 483.636 492.546 488.661 491.866C493.686 491.186 510.046 490.506 511.784 488.277C513.522 486.048 517.451 483.856 514.844 480.078C512.237 476.3 510.537 469.839 503.736 464.021C496.973 458.202 493.989 457.447 493.573 454.953C493.195 452.422 501.507 427.863 504.416 425.369C507.326 422.876 515.146 415.282 518.622 411.617C522.136 407.952 532.64 397.411 532.753 393.897C532.866 390.421 529.466 386.756 528.786 384.451C528.106 382.147 539.251 364.578 542.501 364.578C545.788 364.578 554.893 363.18 557.916 364.578C560.901 366.089 578.507 367.903 582.172 367.412C585.837 366.92 607.033 362.009 610.207 359.477C613.418 356.984 616.289 357.853 612.133 352.412C607.977 346.971 607.222 335.486 607.108 330.876C607.108 329.365 607.335 325.965 607.562 322.035C604.841 320.826 600.912 312.552 600.912 312.552C597.096 314.441 592.487 318.673 589.729 314.554C586.857 310.247 592.411 306.62 596.378 300.688C600.95 293.812 594.489 294.265 600.005 294.265C600.005 294.265 605.068 299.819 608.053 307.111C607.94 303.711 607.562 300.991 606.73 299.933C603.821 296.23 602.499 283.384 602.688 281.079C602.877 278.774 605.786 265.475 604.615 262.302C603.443 259.128 601.517 249.456 599.174 244.317C596.869 239.179 592.524 228.94 593.129 227.315C593.476 226.552 593.907 225.83 594.414 225.162C590.545 224.088 586.871 222.404 583.532 220.174C573.482 213.751 578.054 213.789 578.054 213.789C578.054 213.789 583.532 212.882 584.477 205.553C584.666 203.739 585.308 202.983 586.101 202.908C588.557 202.643 592.676 208.311 592.676 208.311C592.676 208.311 594.829 207.895 597.058 207.857C595.774 205.591 594.64 204.381 594.262 203.21C593.696 201.472 594.149 189.797 596.492 188.324C598.796 186.888 601.328 171.7 601.894 170.151C602.461 168.602 604.615 154.962 610.32 153.149C615.987 151.26 623.468 148.993 625.811 145.592C628.078 142.192 636.919 130.328 637.372 129.044C637.825 127.759 637.372 118.805 635.861 117.331C634.274 115.896 627.322 107.886 627.549 106.337C627.775 104.787 627.813 105.468 632.725 103.314C637.674 101.198 652.485 90.5816 653.127 87.1812C653.807 83.7808 657.019 73.6551 657.019 73.6551C657.019 73.6551 667.371 61.7538 667.447 57.6733C667.56 53.6306 667.938 35.0416 667.371 33.417C666.804 31.7545 666.124 19.4755 660.419 13.2792C654.676 7.12072 653.429 6.51615 648.707 4.02253C646.213 2.70015 641.981 1.68008 638.128 1L638.09 1.03759ZM600.95 216.774L600.836 217.341C600.929 217.153 600.968 216.944 600.95 216.736V216.774Z" fill="#1B0303" stroke="#FCFCFC"/>
<path d="M3.41806 79.8933L1 81.4047C1 81.4047 10.181 96.8199 10.71 97.5378C11.2389 98.2556 28.1276 144.236 30.4701 147.297C32.8126 150.319 46.9809 167.548 50.7591 169.551C54.5374 171.553 60.8092 174.576 65.6453 181.225C71.6334 188.545 77.9889 195.556 84.6875 202.232C85.5943 203.139 87.1812 208.882 89.3348 214.436C91.5261 219.99 94.3976 232.042 94.3976 232.042C94.3976 232.042 107.13 250.329 109.133 255.921C111.097 261.475 115.367 269.031 117.18 272.28C118.994 275.53 122.583 283.048 121.714 288.262C120.77 293.438 120.43 297.935 122.394 300.617C124.359 303.3 123.49 309.949 125.983 316.259C128.515 322.531 132.255 334.772 134.598 338.324C136.94 341.913 145.177 356.648 146.461 359.519C147.708 362.391 151.146 362.013 154.169 362.769C157.229 363.487 162.103 370.665 162.103 372.819C162.103 374.935 161.008 380.715 157.418 379.468C153.829 378.184 152.053 377.315 150.958 378.184C149.862 379.091 152.015 394.733 156.512 404.065C159.863 411.375 162.802 418.868 165.315 426.507C165.504 427.036 166.939 450.575 168.715 456.469C170.529 462.4 171.247 472.11 174.647 475.888C178.047 479.667 180.201 482.878 179.332 486.845C178.425 490.775 176.46 497.425 181.674 503.507C186.277 508.708 190.423 514.295 194.067 520.207C195.654 523.456 193.878 531.164 199.621 536.756C205.85 542.495 212.438 547.833 219.343 552.738C220.099 552.926 238.045 570.684 244.317 571.78C250.627 572.838 252.592 572.838 253.838 576.087C255.085 579.336 252.025 583.795 255.085 586.855C258.146 589.878 270.727 603.366 274.845 604.461C279.001 605.519 284.707 603.366 284.707 603.366L286.482 602.383C285.084 602.686 283.951 603.101 283.762 602.988C282.536 600.602 281.743 598.018 281.419 595.356C281.419 593.316 286.142 585.873 288.258 582.774C290.309 579.696 291.484 576.117 291.658 572.422C291.658 569.513 287.88 564.223 286.444 562.183C285.009 560.143 283.044 557.423 284.253 554.74C285.387 552.02 287.124 551.717 289.92 550.093C292.754 548.43 292.452 541.97 292.187 538.191C291.923 534.413 288.069 533.28 285.878 530.559C284.757 529.052 284.003 527.305 283.675 525.455C283.347 523.606 283.454 521.705 283.989 519.905C285.122 516.429 287.616 516.656 291.394 513.86C295.172 511.064 296.041 508.419 296.192 504.943C296.419 501.467 298.081 489.15 299.215 486.354C300.348 483.558 304.051 481.707 308.094 478.722C312.174 475.7 310.814 463.534 310.738 460.549C310.625 457.526 309.567 457.451 308.207 455.335C306.847 453.182 301.255 449.063 299.706 449.063C298.157 449.063 296.608 450.461 293.661 454.05C290.789 457.64 287.616 456.091 285.953 455.94C284.329 455.713 284.895 450.763 285.575 448.761C286.255 446.721 288.22 443.736 290.865 440.336C293.623 436.935 293.699 432.515 294.001 431.532C294.303 430.55 292.716 427.376 291.847 425.374C291.016 423.296 292.452 419.82 293.812 416.457C295.134 413.057 296.117 403.876 295.55 401.344C294.983 398.813 292.338 395.299 290.789 391.521C289.278 387.743 293.812 387.818 295.248 386.496C296.683 385.174 299.404 381.244 300.159 380.186C300.953 379.128 297.968 374.292 295.814 372.819C293.661 371.345 290.298 370.325 287.88 369.57C285.462 368.776 283.46 371.194 281.117 372.743C278.812 374.292 268.838 377.844 266.155 380.375C263.435 382.869 260.11 382.415 259.166 381.811C257.679 380.627 256.38 379.226 255.312 377.655C253.574 375.539 250.4 377.088 246.698 371.307C242.995 365.527 246.886 363.26 248.171 359.406C249.418 355.552 248.436 349.734 248.549 346.636C248.662 343.538 243.335 336.774 243.524 334.923C243.713 333.072 247.869 331.749 249.493 330.956C251.156 330.2 255.388 325.667 256.37 324.495C257.352 323.362 255.803 316.674 254.934 314.71C254.065 312.821 252.214 312.103 248.927 310.743C245.64 309.382 235.892 304.849 233.549 303.791C231.245 302.733 230.149 300.768 229.204 298.955C228.222 297.141 228.827 295.667 230.073 293.665C231.32 291.587 234.116 289.887 235.212 288.716C236.27 287.582 235.098 282.406 234.343 278.439C233.587 274.472 232.303 275.945 231.32 275.189C230.376 274.396 225.351 271.109 223.499 269.749C221.648 268.389 215.641 262.306 214.62 259.51C213.525 256.714 215.376 253.88 214.243 251.651C213.071 249.46 207.631 247.609 205.779 246.437C203.966 245.304 201.434 244.548 201.246 243.15C201.057 241.79 195.465 239.599 193.991 237.256C192.556 234.952 193.122 236.123 190.44 233.402C187.72 230.682 189.684 229.7 190.062 227.206C190.471 224.542 190.522 221.836 190.213 219.159C189.98 216.963 189.472 214.805 188.702 212.736L188.437 212.282C185.642 207.484 181.259 198.681 173.589 199.058C165.995 199.436 163.992 194.638 163.199 189.008C162.368 183.379 156.776 178.996 153.149 181.376C149.522 183.795 141.928 185.381 137.507 183.794C133.087 182.207 127.079 184.588 127.079 178.996C127.079 173.404 130.291 170.571 124.661 168.946C119.069 167.359 114.611 170.948 108.226 166.15C101.803 161.352 100.594 158.518 97.798 154.929C95.0021 151.34 92.1684 146.088 86.9545 142.083C81.7405 138.078 77.7356 141.29 77.7356 135.282C77.7356 129.237 76.5266 121.605 75.7332 118.809C74.9397 116.013 72.1439 118.431 69.3102 115.22C66.5143 112.008 66.8921 109.175 66.5143 106.794C66.1365 104.376 64.0962 101.58 62.0938 103.167C60.0913 104.792 58.0889 107.172 56.4642 105.17C54.8396 103.167 56.0864 102.752 53.6684 100.787C51.2503 98.7845 51.2503 97.5754 47.2454 95.9507C43.2405 94.3639 41.238 95.573 39.2356 92.7393C37.2331 89.9435 36.0241 83.1048 32.8126 82.727C29.6011 82.3492 15.9617 85.9386 13.5437 85.9386C11.1256 85.9386 4.32485 81.5181 4.32485 81.5181L3.41806 79.8933ZM112.306 233.176C113.478 233.062 114.573 233.214 115.253 234.158C115.548 234.466 115.893 234.721 116.273 234.914L117.596 235.669C118.54 236.198 119.334 236.727 119.22 237.407C119.145 237.76 118.918 238.113 118.54 238.465C117.785 239.221 116.727 239.977 116.311 240.43C116.211 240.531 116.16 240.619 116.16 240.694C116.16 240.77 116.223 240.82 116.349 240.846C118.692 241.324 120.102 241.954 120.581 242.735L120.807 243.301L120.77 243.944L120.467 244.586L119.976 245.266C119.78 245.469 119.532 245.613 119.258 245.682C118.503 245.946 117.445 245.644 116.425 245.417C115.064 245.115 113.742 244.964 112.911 246.399C112.08 247.873 112.042 249.422 111.853 250.329C111.664 251.236 111.286 251.462 109.775 250.329C107.886 248.818 108.453 247.798 107.961 246.74L107.47 246.097C106.787 245.466 105.993 244.967 105.128 244.624C100.216 242.508 103.73 240.354 103.73 240.354L108.641 238.465L108.264 236.841C108.15 235.972 108.037 235.065 108.264 234.8C108.69 234.502 109.146 234.249 109.624 234.045L110.908 233.554L112.306 233.176Z" fill="#1B0303"/>
<path d="M190.402 215.607L191.044 216.589M201.926 215.72C201.17 216.955 200.49 217.987 199.885 218.819M192.065 218.025L192.291 218.327M192.858 218.894L193.236 219.196M199.659 219.121L199.281 219.499M193.802 219.574L194.256 219.801M3.41806 79.8933L1 81.4047C1 81.4047 10.181 96.8199 10.71 97.5378C11.2389 98.2556 28.1276 144.236 30.4701 147.297C32.8126 150.319 46.9809 167.548 50.7591 169.551C54.5374 171.553 60.8092 174.576 65.6453 181.225C71.6334 188.545 77.9889 195.556 84.6875 202.232C85.5943 203.139 87.1812 208.882 89.3348 214.436C91.5261 219.99 94.3976 232.042 94.3976 232.042C94.3976 232.042 107.13 250.329 109.133 255.921C111.097 261.475 115.367 269.031 117.18 272.28C118.994 275.53 122.583 283.048 121.714 288.262C120.77 293.438 120.43 297.935 122.394 300.617C124.359 303.3 123.49 309.949 125.983 316.259C128.515 322.531 132.255 334.772 134.598 338.324C136.94 341.913 145.177 356.648 146.461 359.519C147.708 362.391 151.146 362.013 154.169 362.769C157.229 363.487 162.103 370.665 162.103 372.819C162.103 374.935 161.008 380.715 157.418 379.468C153.829 378.184 152.053 377.315 150.958 378.184C149.862 379.091 152.015 394.733 156.512 404.065C159.863 411.375 162.802 418.868 165.315 426.507C165.504 427.036 166.939 450.575 168.715 456.469C170.529 462.4 171.247 472.11 174.647 475.888C178.047 479.667 180.201 482.878 179.332 486.845C178.425 490.775 176.46 497.425 181.674 503.507C186.277 508.708 190.423 514.295 194.067 520.207C195.654 523.456 193.878 531.164 199.621 536.756C205.85 542.495 212.438 547.833 219.343 552.738C220.099 552.926 238.045 570.684 244.317 571.78C250.627 572.838 252.592 572.838 253.838 576.087C255.085 579.336 252.025 583.795 255.085 586.855C258.146 589.878 270.727 603.366 274.845 604.461C279.001 605.519 284.707 603.366 284.707 603.366L286.482 602.383C285.084 602.686 283.951 603.101 283.762 602.988C282.536 600.602 281.743 598.019 281.419 595.356C281.419 593.316 286.142 585.873 288.258 582.774C290.309 579.696 291.484 576.117 291.658 572.422C291.658 569.513 287.88 564.223 286.444 562.183C285.009 560.143 283.044 557.423 284.253 554.74C285.386 552.02 287.124 551.717 289.92 550.093C292.754 548.43 292.452 541.97 292.187 538.191C291.923 534.413 288.069 533.28 285.878 530.559C284.757 529.052 284.003 527.305 283.675 525.455C283.347 523.606 283.454 521.705 283.989 519.905C285.122 516.429 287.616 516.656 291.394 513.86C295.172 511.064 296.041 508.419 296.192 504.943C296.419 501.467 298.081 489.15 299.215 486.354C300.348 483.558 304.051 481.707 308.094 478.722C312.174 475.7 310.814 463.534 310.738 460.549C310.625 457.526 309.567 457.451 308.207 455.335C306.847 453.182 301.255 449.063 299.706 449.063C298.157 449.063 296.608 450.461 293.661 454.05C290.789 457.64 287.616 456.091 285.953 455.94C284.329 455.713 284.895 450.763 285.575 448.761C286.256 446.721 288.22 443.736 290.865 440.336C293.623 436.935 293.699 432.515 294.001 431.532C294.303 430.55 292.716 427.376 291.847 425.374C291.016 423.296 292.452 419.82 293.812 416.457C295.134 413.057 296.117 403.876 295.55 401.344C294.983 398.813 292.338 395.299 290.789 391.521C289.278 387.743 293.812 387.818 295.248 386.496C296.683 385.174 299.404 381.244 300.159 380.186C300.953 379.128 297.968 374.292 295.814 372.819C293.661 371.345 290.298 370.325 287.88 369.57C285.462 368.776 283.46 371.194 281.117 372.743C278.812 374.292 268.838 377.844 266.155 380.375C263.435 382.869 260.11 382.415 259.166 381.811C257.679 380.627 256.38 379.226 255.312 377.655C253.574 375.539 250.4 377.088 246.698 371.307C242.995 365.527 246.886 363.26 248.171 359.406C249.418 355.552 248.436 349.734 248.549 346.636C248.662 343.538 243.335 336.774 243.524 334.923C243.713 333.072 247.869 331.749 249.493 330.956C251.156 330.2 255.388 325.667 256.37 324.495C257.352 323.362 255.803 316.674 254.934 314.71C254.065 312.821 252.214 312.103 248.927 310.743C245.64 309.382 235.892 304.849 233.549 303.791C231.245 302.733 230.149 300.768 229.204 298.955C228.222 297.141 228.827 295.667 230.073 293.665C231.32 291.587 234.116 289.887 235.212 288.716C236.27 287.582 235.098 282.406 234.343 278.439C233.587 274.472 232.303 275.945 231.32 275.189C230.376 274.396 225.351 271.109 223.499 269.749C221.648 268.389 215.641 262.306 214.62 259.51C213.525 256.714 215.376 253.88 214.243 251.651C213.071 249.46 207.631 247.609 205.779 246.437C203.966 245.304 201.434 244.548 201.246 243.15C201.057 241.79 195.465 239.599 193.991 237.256C192.556 234.952 193.122 236.123 190.44 233.402C187.72 230.682 189.684 229.7 190.062 227.206C190.471 224.542 190.522 221.836 190.213 219.159C189.98 216.963 189.472 214.805 188.702 212.736L188.437 212.282C185.642 207.484 181.259 198.681 173.589 199.058C165.995 199.436 163.992 194.638 163.199 189.008C162.368 183.379 156.776 178.996 153.149 181.376C149.522 183.795 141.928 185.381 137.507 183.794C133.087 182.207 127.079 184.588 127.079 178.996C127.079 173.404 130.291 170.571 124.661 168.946C119.069 167.359 114.611 170.948 108.226 166.15C101.803 161.352 100.594 158.518 97.798 154.929C95.0021 151.34 92.1684 146.088 86.9545 142.083C81.7405 138.078 77.7356 141.29 77.7356 135.282C77.7356 129.237 76.5266 121.605 75.7332 118.809C74.9397 116.013 72.1439 118.431 69.3102 115.22C66.5143 112.008 66.8921 109.175 66.5143 106.794C66.1365 104.376 64.0963 101.58 62.0938 103.167C60.0913 104.792 58.0889 107.172 56.4642 105.17C54.8396 103.167 56.0864 102.752 53.6684 100.787C51.2503 98.7845 51.2503 97.5754 47.2454 95.9507C43.2405 94.3639 41.238 95.573 39.2356 92.7393C37.2331 89.9435 36.0241 83.1048 32.8126 82.727C29.6011 82.3492 15.9617 85.9386 13.5437 85.9386C11.1256 85.9386 4.32485 81.5181 4.32485 81.5181L3.41806 79.8933ZM112.306 233.176C113.478 233.062 114.573 233.214 115.253 234.158C115.548 234.466 115.893 234.721 116.273 234.914L117.596 235.669C118.54 236.198 119.334 236.727 119.22 237.407C119.145 237.76 118.918 238.113 118.54 238.465C117.785 239.221 116.727 239.977 116.311 240.43C116.211 240.531 116.16 240.619 116.16 240.694C116.16 240.77 116.223 240.82 116.349 240.846C118.692 241.324 120.102 241.954 120.581 242.735L120.807 243.301L120.77 243.944L120.467 244.586L119.976 245.266C119.78 245.469 119.532 245.613 119.258 245.682C118.503 245.946 117.445 245.644 116.425 245.417C115.064 245.115 113.742 244.964 112.911 246.399C112.08 247.873 112.042 249.422 111.853 250.329C111.664 251.236 111.286 251.462 109.775 250.329C107.886 248.818 108.453 247.798 107.961 246.74L107.47 246.097C106.787 245.466 105.993 244.967 105.128 244.624C100.216 242.508 103.73 240.354 103.73 240.354L108.641 238.465L108.264 236.841C108.15 235.972 108.037 235.065 108.264 234.8C108.69 234.502 109.146 234.249 109.624 234.045L110.908 233.554L112.306 233.176Z" stroke="#FCFCFC"/>
</svg>
